<mxfile host="65bd71144e">
    <diagram id="_N6Oebj4FopppDtfHM_m" name="Page-1">
        <mxGraphModel dx="656" dy="1760" grid="1" gridSize="10" guides="1" tooltips="1" connect="1" arrows="1" fold="1" page="1" pageScale="1" pageWidth="827" pageHeight="1169" math="0" shadow="0">
            <root>
                <mxCell id="0"/>
                <mxCell id="1" parent="0"/>
                <mxCell id="4" value="" style="edgeStyle=none;html=1;" parent="1" source="2" target="3" edge="1">
                    <mxGeometry relative="1" as="geometry"/>
                </mxCell>
                <mxCell id="2" value="Start" style="ellipse;whiteSpace=wrap;html=1;" parent="1" vertex="1">
                    <mxGeometry x="105" y="-750" width="120" height="29" as="geometry"/>
                </mxCell>
                <mxCell id="6" value="" style="edgeStyle=none;html=1;fontSize=12;" edge="1" parent="1" source="3" target="5">
                    <mxGeometry relative="1" as="geometry"/>
                </mxCell>
                <mxCell id="3" value="&lt;div style=&quot;color: rgb(212 , 212 , 212) ; font-family: &amp;#34;consolas&amp;#34; , &amp;#34;courier new&amp;#34; , monospace ; line-height: 19px&quot;&gt;&lt;font style=&quot;font-size: 12px&quot;&gt;stringArray = [&quot;hello&quot;, &quot;2&quot;, &quot;world&quot;, &quot;:-)&quot;]&lt;/font&gt;&lt;/div&gt;" style="whiteSpace=wrap;html=1;" parent="1" vertex="1">
                    <mxGeometry x="10" y="-701" width="310" height="30" as="geometry"/>
                </mxCell>
                <mxCell id="17" value="" style="edgeStyle=none;html=1;fontSize=12;" edge="1" parent="1" source="5" target="14">
                    <mxGeometry relative="1" as="geometry"/>
                </mxCell>
                <mxCell id="5" value="sizeNewArray = SearchStringsWithSizeLessOrEqual3(stringArray)" style="shape=process;whiteSpace=wrap;html=1;backgroundOutline=1;size=0.03389830508474576;" vertex="1" parent="1">
                    <mxGeometry x="10" y="-651" width="310" height="41" as="geometry"/>
                </mxCell>
                <mxCell id="11" value="" style="edgeStyle=none;html=1;fontSize=12;" edge="1" parent="1" source="9" target="10">
                    <mxGeometry relative="1" as="geometry"/>
                </mxCell>
                <mxCell id="9" value="sizeNewArray = SearchStringsWithSizeLessOrEqual3(stringArray)" style="shape=process;whiteSpace=wrap;html=1;backgroundOutline=1;size=0.03389830508474576;" vertex="1" parent="1">
                    <mxGeometry x="390" y="-762" width="310" height="41" as="geometry"/>
                </mxCell>
                <mxCell id="10" value="" style="whiteSpace=wrap;html=1;" vertex="1" parent="1">
                    <mxGeometry x="390" y="-690" width="310" height="60" as="geometry"/>
                </mxCell>
                <mxCell id="14" value="CreateArrayWithSizeLessOrEqual3&lt;br&gt;(stringArray, )" style="shape=process;whiteSpace=wrap;html=1;backgroundOutline=1;size=0.03389830508474576;" vertex="1" parent="1">
                    <mxGeometry x="10" y="-590" width="310" height="41" as="geometry"/>
                </mxCell>
            </root>
        </mxGraphModel>
    </diagram>
</mxfile>